<?xml version="1.0" encoding="UTF-8" standalone="no"?>
<svg xmlns:rdf="http://www.w3.org/1999/02/22-rdf-syntax-ns#" xmlns="http://www.w3.org/2000/svg" height="262.37" width="228.96" version="1.1" xmlns:cc="http://creativecommons.org/ns#" xmlns:xlink="http://www.w3.org/1999/xlink" viewBox="0 0 228.95901 262.3714" xmlns:dc="http://purl.org/dc/elements/1.1/">
 <metadata>
  <rdf:RDF>
   <cc:Work rdf:about="">
    <dc:format>image/svg+xml</dc:format>
    <dc:type rdf:resource="http://purl.org/dc/dcmitype/StillImage"/>
    <dc:title/>
   </cc:Work>
  </rdf:RDF>
 </metadata>
 <defs>
  <linearGradient id="a">
   <stop stop-color="#3f982e" offset="0"/>
   <stop stop-color="#3f982e" stop-opacity="0" offset="1"/>
  </linearGradient>
  <linearGradient id="d">
   <stop stop-color="#2c63d8" offset="0"/>
   <stop stop-color="#2c63d8" stop-opacity="0" offset="1"/>
  </linearGradient>
  <linearGradient id="c">
   <stop stop-color="#9558b2" offset="0"/>
   <stop stop-color="#9558b2" stop-opacity="0" offset="1"/>
  </linearGradient>
  <linearGradient id="b">
   <stop stop-color="#cb3c33" offset="0"/>
   <stop stop-color="#cb3c33" stop-opacity="0" offset="1"/>
  </linearGradient>
  <linearGradient id="ag" y2="274.56" xlink:href="#b" gradientUnits="userSpaceOnUse" x2="-181.01" gradientTransform="matrix(1.1857 0 0 1.1857 32.224 -123.15)" y1="274.56" x1="-183.34"/>
  <linearGradient id="af" y2="274.56" xlink:href="#b" gradientUnits="userSpaceOnUse" x2="-166.07" gradientTransform="matrix(1.1857 0 0 1.1857 32.224 -123.15)" y1="274.56" x1="-168.4"/>
  <linearGradient id="ae" y2="274.56" xlink:href="#b" gradientUnits="userSpaceOnUse" x2="-149.26" gradientTransform="matrix(1.1857 0 0 1.1857 32.224 -123.15)" y1="274.56" x1="-153.93"/>
  <linearGradient id="ad" y2="274.56" xlink:href="#b" gradientUnits="userSpaceOnUse" x2="-142.96" gradientTransform="matrix(1.1857 0 0 1.1857 32.224 -123.15)" y1="274.56" x1="-147.63"/>
  <linearGradient id="ac" y2="274.56" xlink:href="#b" gradientUnits="userSpaceOnUse" x2="-124.52" gradientTransform="matrix(1.1857 0 0 1.1857 32.224 -123.15)" y1="274.56" x1="-131.05"/>
  <linearGradient id="ab" y2="274.56" xlink:href="#b" gradientUnits="userSpaceOnUse" x2="-120.32" gradientTransform="matrix(1.1857 0 0 1.1857 32.224 -123.15)" y1="274.56" x1="-126.85"/>
  <linearGradient id="aa" y2="274.56" xlink:href="#b" gradientUnits="userSpaceOnUse" x2="-108.88" gradientTransform="matrix(1.1857 0 0 1.1857 32.224 -123.15)" y1="274.56" x1="-112.61"/>
  <linearGradient id="z" y2="274.56" xlink:href="#b" gradientUnits="userSpaceOnUse" x2="-100.71" gradientTransform="matrix(1.1857 0 0 1.1857 32.224 -123.15)" y1="274.56" x1="-104.44"/>
  <linearGradient id="y" y2="274.56" xlink:href="#b" gradientUnits="userSpaceOnUse" x2="-92.537" gradientTransform="matrix(1.1857 0 0 1.1857 32.224 -123.15)" y1="274.56" x1="-96.272"/>
  <linearGradient id="x" y2="274.56" xlink:href="#b" gradientUnits="userSpaceOnUse" x2="-84.834" gradientTransform="matrix(1.1857 0 0 1.1857 32.224 -123.15)" y1="274.56" x1="-88.569"/>
  <linearGradient id="w" y2="274.56" xlink:href="#b" gradientUnits="userSpaceOnUse" x2="-67.561" gradientTransform="matrix(1.1857 0 0 1.1857 32.224 -123.15)" y1="274.56" x1="-71.296"/>
  <linearGradient id="v" y2="274.56" xlink:href="#b" gradientUnits="userSpaceOnUse" x2="-43.018" gradientTransform="matrix(1.1857 0 0 1.1857 32.224 -123.15)" y1="274.56" x1="-61.492"/>
  <linearGradient id="u" y2="274.56" xlink:href="#b" gradientUnits="userSpaceOnUse" x2="-33.014" gradientTransform="matrix(1.1857 0 0 1.1857 32.224 -123.15)" y1="274.56" x1="-44.451"/>
  <linearGradient id="t" y2="274.56" xlink:href="#b" gradientUnits="userSpaceOnUse" x2="-27.178" gradientTransform="matrix(1.1857 0 0 1.1857 32.224 -123.15)" y1="274.56" x1="-31.846"/>
  <linearGradient id="s" y2="174.83" xlink:href="#c" gradientUnits="userSpaceOnUse" x2="-212.9" gradientTransform="matrix(1.1857 0 0 1.1857 32.224 -123.15)" y1="174.83" x1="-215.59"/>
  <linearGradient id="r" y2="174.83" xlink:href="#c" gradientUnits="userSpaceOnUse" x2="-199.69" gradientTransform="matrix(1.1857 0 0 1.1857 32.224 -123.15)" y1="174.83" x1="-202.38"/>
  <linearGradient id="q" y2="174.83" xlink:href="#c" gradientUnits="userSpaceOnUse" x2="-187.15" gradientTransform="matrix(1.1857 0 0 1.1857 32.224 -123.15)" y1="174.83" x1="-189.84"/>
  <linearGradient id="p" y2="174.83" xlink:href="#c" gradientUnits="userSpaceOnUse" x2="-169.65" gradientTransform="matrix(1.1857 0 0 1.1857 32.224 -123.15)" y1="174.83" x1="-174.32"/>
  <linearGradient id="o" y2="174.83" xlink:href="#c" gradientUnits="userSpaceOnUse" x2="-151.17" gradientTransform="matrix(1.1857 0 0 1.1857 32.224 -123.15)" y1="174.83" x1="-160.13"/>
  <linearGradient id="n" y2="174.83" xlink:href="#c" gradientUnits="userSpaceOnUse" x2="-147.21" gradientTransform="matrix(1.1857 0 0 1.1857 32.224 -123.15)" y1="174.83" x1="-149.56"/>
  <linearGradient id="m" y2="174.83" xlink:href="#c" gradientUnits="userSpaceOnUse" x2="-127.4" gradientTransform="matrix(1.1857 0 0 1.1857 32.224 -123.15)" y1="174.83" x1="-132.07"/>
  <linearGradient id="l" y2="174.83" xlink:href="#c" gradientUnits="userSpaceOnUse" x2="-119.81" gradientTransform="matrix(1.1857 0 0 1.1857 32.224 -123.15)" y1="174.83" x1="-124.47"/>
  <linearGradient id="k" y2="174.83" xlink:href="#c" gradientUnits="userSpaceOnUse" x2="-103.96" gradientTransform="matrix(1.1857 0 0 1.1857 32.224 -123.15)" y1="174.83" x1="-108.63"/>
  <linearGradient id="j" y2="174.83" xlink:href="#c" gradientUnits="userSpaceOnUse" x2="-93.727" gradientTransform="matrix(1.1857 0 0 1.1857 32.224 -123.15)" y1="174.83" x1="-98.395"/>
  <linearGradient id="i" y2="174.83" xlink:href="#c" gradientUnits="userSpaceOnUse" x2="-72.93" gradientTransform="matrix(1.1857 0 0 1.1857 32.224 -123.15)" y1="174.83" x1="-77.598"/>
  <linearGradient id="h" y2="126.27" xlink:href="#d" gradientUnits="userSpaceOnUse" x2="-96.239" gradientTransform="matrix(1.1857 0 0 1.1857 97.54 -123.15)" y1="126.27" x1="-102.57"/>
  <linearGradient id="g" y2="126.27" xlink:href="#d" gradientUnits="userSpaceOnUse" x2="-104.64" gradientTransform="matrix(1.1857 0 0 1.1857 97.54 -123.15)" y1="126.27" x1="-127.32"/>
  <linearGradient id="f" y2="126.27" xlink:href="#d" gradientUnits="userSpaceOnUse" x2="-133.12" gradientTransform="matrix(1.1857 0 0 1.1857 97.54 -123.15)" y1="126.27" x1="-138.52"/>
  <linearGradient id="e" y2="126.27" xlink:href="#d" gradientUnits="userSpaceOnUse" x2="-140.12" gradientTransform="matrix(1.1857 0 0 1.1857 97.54 -123.15)" y1="126.27" x1="-145.53"/>
  <linearGradient id="bc" y2="126.27" xlink:href="#d" gradientUnits="userSpaceOnUse" x2="-144.32" gradientTransform="matrix(1.1857 0 0 1.1857 97.54 -123.15)" y1="126.27" x1="-149.73"/>
  <linearGradient id="bb" y2="126.27" xlink:href="#d" gradientUnits="userSpaceOnUse" x2="-157.4" gradientTransform="matrix(1.1857 0 0 1.1857 97.54 -123.15)" y1="126.27" x1="-162.8"/>
  <linearGradient id="ba" y2="126.27" xlink:href="#d" gradientUnits="userSpaceOnUse" x2="-183.54" gradientTransform="matrix(1.1857 0 0 1.1857 97.54 -123.15)" y1="126.27" x1="-199.21"/>
  <linearGradient id="az" y2="126.27" xlink:href="#d" gradientUnits="userSpaceOnUse" x2="-227.42" gradientTransform="matrix(1.1857 0 0 1.1857 97.54 -123.15)" y1="126.27" x1="-249.17"/>
  <linearGradient id="ay" y2="225.04" xlink:href="#a" gradientUnits="userSpaceOnUse" x2="-86.669" gradientTransform="matrix(1.1857 0 0 1.1857 32.224 -123.15)" y1="225.04" x1="-89.269"/>
  <linearGradient id="ax" y2="225.04" xlink:href="#a" gradientUnits="userSpaceOnUse" x2="-91.104" gradientTransform="matrix(1.1857 0 0 1.1857 32.224 -123.15)" y1="225.04" x1="-93.704"/>
  <linearGradient id="aw" y2="225.04" xlink:href="#a" gradientUnits="userSpaceOnUse" x2="-95.072" gradientTransform="matrix(1.1857 0 0 1.1857 32.224 -123.15)" y1="225.04" x1="-99.54"/>
  <linearGradient id="av" y2="225.04" xlink:href="#a" gradientUnits="userSpaceOnUse" x2="-98.807" gradientTransform="matrix(1.1857 0 0 1.1857 32.224 -123.15)" y1="225.04" x1="-103.27"/>
  <linearGradient id="au" y2="225.04" xlink:href="#a" gradientUnits="userSpaceOnUse" x2="-122.38" gradientTransform="matrix(1.1857 0 0 1.1857 32.224 -123.15)" y1="225.04" x1="-126.85"/>
  <linearGradient id="at" y2="225.04" xlink:href="#a" gradientUnits="userSpaceOnUse" x2="-162.77" gradientTransform="matrix(1.1857 0 0 1.1857 32.224 -123.15)" y1="225.04" x1="-163.73"/>
  <linearGradient id="as" y2="225.04" xlink:href="#a" gradientUnits="userSpaceOnUse" x2="-136.62" gradientTransform="matrix(1.1857 0 0 1.1857 32.224 -123.15)" y1="225.04" x1="-138.29"/>
  <linearGradient id="ar" y2="225.04" xlink:href="#a" gradientUnits="userSpaceOnUse" x2="-171.64" gradientTransform="matrix(1.1857 0 0 1.1857 32.224 -123.15)" y1="225.04" x1="-175.17"/>
  <linearGradient id="aq" y2="225.04" xlink:href="#a" gradientUnits="userSpaceOnUse" x2="-176.07" gradientTransform="matrix(1.1857 0 0 1.1857 32.224 -123.15)" y1="225.04" x1="-179.61"/>
  <linearGradient id="ap" y2="225.04" xlink:href="#a" gradientUnits="userSpaceOnUse" x2="-181.21" gradientTransform="matrix(1.1857 0 0 1.1857 32.224 -123.15)" y1="225.04" x1="-183.57"/>
  <linearGradient id="ao" y2="225.04" xlink:href="#a" gradientUnits="userSpaceOnUse" x2="-184.01" gradientTransform="matrix(1.1857 0 0 1.1857 32.224 -123.15)" y1="225.04" x1="-187.54"/>
  <linearGradient id="an" y2="225.04" xlink:href="#a" gradientUnits="userSpaceOnUse" x2="-189.14" gradientTransform="matrix(1.1857 0 0 1.1857 32.224 -123.15)" y1="225.04" x1="-191.28"/>
  <linearGradient id="am" y2="225.04" xlink:href="#a" gradientUnits="userSpaceOnUse" x2="-191.48" gradientTransform="matrix(1.1857 0 0 1.1857 32.224 -123.15)" y1="225.04" x1="-195.01"/>
  <linearGradient id="al" y2="225.04" xlink:href="#a" gradientUnits="userSpaceOnUse" x2="-200.58" gradientTransform="matrix(1.1857 0 0 1.1857 32.224 -123.15)" y1="225.04" x1="-204.12"/>
  <linearGradient id="ak" y2="225.04" xlink:href="#a" gradientUnits="userSpaceOnUse" x2="-215.75" gradientTransform="matrix(1.1857 0 0 1.1857 32.224 -123.15)" y1="225.04" x1="-219.29"/>
  <linearGradient id="aj" y2="225.04" xlink:href="#a" gradientUnits="userSpaceOnUse" x2="-245.17" gradientTransform="matrix(1.1857 0 0 1.1857 32.224 -123.15)" y1="225.04" x1="-248.47"/>
  <linearGradient id="ai" y2="225.04" xlink:href="#a" gradientUnits="userSpaceOnUse" x2="-218.55" gradientTransform="matrix(1.1857 0 0 1.1857 32.224 -123.15)" y1="225.04" x1="-229.56"/>
  <linearGradient id="ah" y2="225.04" xlink:href="#a" gradientUnits="userSpaceOnUse" x2="-230.23" gradientTransform="matrix(1.1857 0 0 1.1857 32.224 -123.15)" y1="225.04" x1="-244.03"/>
 </defs>
 <rect transform="rotate(-90)" ry="1.8479" height="53.139" width="5.5353" y="175.82" x="-5.5353" fill="url(#t)"/>
 <rect ry="1.8479" transform="rotate(-90)" height="53.139" width="13.561" y="175.82" x="-20.48" fill="url(#u)"/>
 <rect transform="rotate(-90)" ry="1.8479" height="53.139" width="21.904" y="175.82" x="-40.684" fill="url(#v)"/>
 <rect ry="1.8479" transform="rotate(-90)" height="53.139" width="4.4282" y="175.82" x="-52.308" fill="url(#w)"/>
 <rect transform="rotate(-90)" ry="1.8479" height="53.139" width="4.4282" y="175.82" x="-72.788" fill="url(#x)"/>
 <rect ry="1.8479" transform="rotate(-90)" height="53.139" width="4.4282" y="175.82" x="-81.922" fill="url(#y)"/>
 <rect transform="rotate(-90)" ry="1.8479" height="53.139" width="4.4282" y="175.82" x="-91.608" fill="url(#z)"/>
 <rect ry="1.8479" transform="rotate(-90)" height="53.139" width="4.4282" y="175.82" x="-101.29" fill="url(#aa)"/>
 <rect transform="rotate(-90)" ry="1.8479" height="53.139" width="7.7494" y="175.82" x="-118.18" fill="url(#ab)"/>
 <rect ry="1.8479" transform="rotate(-90)" height="53.139" width="7.7494" y="175.82" x="-123.16" fill="url(#ac)"/>
 <rect transform="rotate(-90)" ry="1.8479" height="53.139" width="5.5353" y="175.82" x="-142.81" fill="url(#ad)"/>
 <rect ry="1.8479" transform="rotate(-90)" height="53.139" width="5.5353" y="175.82" x="-150.28" fill="url(#ae)"/>
 <rect transform="rotate(-90)" ry="1.8479" height="53.139" width="2.7676" y="175.82" x="-167.44" fill="url(#af)"/>
 <rect ry="1.8479" transform="rotate(-90)" height="53.139" width="2.7676" y="175.82" x="-185.15" fill="url(#ag)"/>
 <rect ry="1.8479" transform="rotate(-90)" height="53.139" width="5.5353" y="57.57" x="-59.781" fill="url(#i)"/>
 <rect transform="rotate(-90)" ry="1.8479" height="53.139" width="5.5353" y="57.57" x="-84.439" fill="url(#j)"/>
 <rect ry="1.8479" transform="rotate(-90)" height="53.139" width="5.5353" y="57.57" x="-96.571" fill="url(#k)"/>
 <rect transform="rotate(-90)" ry="1.8479" height="53.139" width="5.5353" y="57.57" x="-115.36" fill="url(#l)"/>
 <rect ry="1.8479" transform="rotate(-90)" height="53.139" width="5.5353" y="57.57" x="-124.36" fill="url(#m)"/>
 <rect transform="rotate(-90)" ry="1.8479" height="53.139" width="2.7954" y="57.57" x="-145.11" fill="url(#n)"/>
 <rect transform="rotate(-90)" ry="1.8479" height="53.139" width="10.623" y="57.57" x="-157.63" fill="url(#o)"/>
 <rect transform="rotate(-90)" ry="1.8479" height="53.139" width="5.5353" y="57.57" x="-174.46" fill="url(#p)"/>
 <rect ry="1.8479" transform="rotate(-90)" height="53.139" width="3.1869" y="57.57" x="-192.86" fill="url(#q)"/>
 <rect transform="rotate(-90)" ry="1.8479" height="53.139" width="3.1869" y="57.57" x="-207.73" fill="url(#r)"/>
 <rect ry="1.8479" transform="rotate(-90)" height="53.139" width="3.1869" y="57.57" x="-223.39" fill="url(#s)"/>
 <rect ry="1.8479" transform="rotate(-90)" height="53.139" width="16.368" y="117.11" x="-257.11" fill="url(#ah)"/>
 <rect transform="rotate(-90)" ry="1.8479" height="53.139" width="13.047" y="117.11" x="-239.95" fill="url(#ai)"/>
 <rect ry="1.8479" transform="rotate(-90)" height="53.139" width="3.914" y="117.11" x="-262.37" fill="url(#aj)"/>
 <rect ry="1.8479" transform="rotate(-90)" height="53.139" width="4.1908" y="117.11" x="-227.77" fill="url(#ak)"/>
 <rect transform="rotate(-90)" ry="1.8479" height="53.139" width="4.1908" y="117.11" x="-209.79" fill="url(#al)"/>
 <rect ry="1.8479" transform="rotate(-90)" height="53.139" width="4.1908" y="117.11" x="-198.99" fill="url(#am)"/>
 <rect transform="rotate(-90)" ry="1.8479" height="53.139" width="2.5302" y="117.11" x="-194.56" fill="url(#an)"/>
 <rect ry="1.8479" transform="rotate(-90)" height="53.139" width="4.1908" y="117.11" x="-190.14" fill="url(#ao)"/>
 <rect transform="rotate(-90)" ry="1.8479" height="53.139" width="2.807" y="117.11" x="-185.43" fill="url(#ap)"/>
 <rect ry="1.8479" transform="rotate(-90)" height="53.139" width="4.1908" y="117.11" x="-180.73" fill="url(#aq)"/>
 <rect transform="rotate(-90)" ry="1.8479" height="53.139" width="4.1908" y="117.11" x="-175.47" fill="url(#ar)"/>
 <rect ry="1.8479" transform="rotate(-90)" height="53.139" width="1.9767" y="117.11" x="-131.74" fill="url(#as)"/>
 <rect transform="rotate(-90)" ry="1.8479" height="53.139" width="1.1464" y="117.11" x="-161.91" fill="url(#at)"/>
 <rect transform="rotate(-90)" ry="1.8479" height="53.139" width="5.2978" y="117.11" x="-118.18" fill="url(#au)"/>
 <rect ry="1.8479" transform="rotate(-90)" height="53.139" width="5.2978" y="117.11" x="-90.224" fill="url(#av)"/>
 <rect transform="rotate(-90)" ry="1.8479" height="53.139" width="5.2978" y="117.11" x="-85.796" fill="url(#aw)"/>
 <rect ry="1.8479" transform="rotate(-90)" height="53.139" width="3.0837" y="117.11" x="-78.877" fill="url(#ax)"/>
 <rect transform="rotate(-90)" ry="1.8479" height="53.139" width="3.0837" y="117.11" x="-73.619" fill="url(#ay)"/>
 <rect ry="1.8479" transform="rotate(-90)" height="53.139" width="25.778" y="0" x="-197.88" fill="url(#az)"/>
 <rect transform="rotate(-90)" ry="1.8479" height="53.139" width="18.582" y="0" x="-138.66" fill="url(#ba)"/>
 <rect ry="1.8479" transform="rotate(-90)" height="53.139" width="6.4049" y="0" x="-95.483" fill="url(#bb)"/>
 <rect transform="rotate(-90)" ry="1.8479" height="53.139" width="6.4049" y="0" x="-79.984" fill="url(#bc)"/>
 <rect ry="1.8479" transform="rotate(-90)" height="53.139" width="6.4049" y="0" x="-75.003" fill="url(#e)"/>
 <rect transform="rotate(-90)" ry="1.8479" height="53.139" width="6.4049" y="0" x="-66.7" fill="url(#f)"/>
 <rect ry="1.8479" transform="rotate(-90)" height="53.139" width="26.885" y="0" x="-53.415" fill="url(#g)"/>
 <rect transform="rotate(-90)" ry="1.8479" height="53.139" width="7.5119" y="0" x="-24.078" fill="url(#h)"/>
</svg>
