<?xml version="1.0" encoding="UTF-8" standalone="no"?>
<svg id="Bio_Align_Blue" xmlns:rdf="http://www.w3.org/1999/02/22-rdf-syntax-ns#" xmlns="http://www.w3.org/2000/svg" height="12.952mm" viewBox="0 0 183.45445 45.891826" width="51.777mm" version="1.1" xmlns:cc="http://creativecommons.org/ns#" xmlns:dc="http://purl.org/dc/elements/1.1/">
 <defs>
  <clipPath id="d" clipPathUnits="userSpaceOnUse">
   <circle stroke-width="5.593" stroke="#c93d39" cy="447.62" cx="615.89" r="20.135" fill="#d66661"/>
  </clipPath>
  <clipPath id="c" clipPathUnits="userSpaceOnUse">
   <ellipse rx="33.481" ry="20.135" stroke="#3b972e" cy="498.87" cx="758.89" stroke-width="7.2123" fill="#6bab5b"/>
  </clipPath>
  <clipPath id="b" clipPathUnits="userSpaceOnUse">
   <ellipse rx="14.698" ry="11.781" stroke="#4266d5" cy="1029" cx="318.19" stroke-width="3.6553" fill="#6b85dd"/>
  </clipPath>
  <clipPath id="a" clipPathUnits="userSpaceOnUse">
   <circle r="20.135" stroke="#945bb0" cy="849.04" cx="748.65" stroke-width="5.593" fill="#aa7dc0"/>
  </clipPath>
 </defs>
 <g transform="translate(-425.64 -575.14)">
  <g transform="translate(-169.11,202.24)">
   <circle stroke-width="5.593" stroke="#4266d5" cy="395.83" cx="617.68" r="20.135" fill="#6b85dd"/>
   <g clip-path="url(#d)" transform="translate(1.7857,-51.786)" stroke="#252525" stroke-width="5" fill="none">
    <path d="m572.35 439.29h55"/>
    <path d="m605.93 445.29h55"/>
    <path d="m584.22 451.29h55"/>
    <path d="m557.7 457.29h55"/>
   </g>
  </g>
 </g>
 <g transform="translate(-234.07 -395.13)">
  <g transform="translate(-718.93,-10.613)">
   <circle stroke-width="5.593" stroke="#c93d39" cy="428.69" cx="1021.8" r="20.135" fill="#d66661"/>
   <g clip-path="url(#c)" transform="matrix(.60138 0 0 1 565.4 -70.179)">
    <g transform="translate(2.0785 .17857)">
     <path d="m718.67 499.66h75.708" stroke="#252525" stroke-width="6.4475" fill="none"/>
     <g fill="#252525">
      <path d="m743.87 495.78v-0.64026q0-1.2805-0.5067-1.6647-0.5067-0.39331-2.1918-0.39331h-2.9224q-1.8383 0-2.6749-0.41159-0.83665-0.4116-1.1548-1.4269-0.2946 1.0153-1.1312 1.4269-0.83664 0.41159-2.6867 0.41159h-2.9224q-1.6733 0-2.18 0.39331-0.51848 0.38415-0.51848 1.6647v0.64026h-1.6851v-0.57623q0-2.2775 0.87199-3.0367 0.86021-0.76832 3.4644-0.76832h2.8281q1.7558 0 2.4392-0.49391 0.67167-0.49391 0.67167-1.7927v-0.56708h1.6851v0.56708q0 1.2988 0.68345 1.7927 0.68346 0.49391 2.4628 0.49391h2.8163q2.6042 0 3.4762 0.76832 0.87199 0.75916 0.87199 3.0367v0.57623h-1.6968z"/>
      <path d="m785.3 495.61v-0.64026q0-1.2805-0.5067-1.6647-0.5067-0.39331-2.1918-0.39331h-2.9224q-1.8383 0-2.6749-0.41159-0.83665-0.4116-1.1548-1.4269-0.2946 1.0153-1.1312 1.4269-0.83664 0.41159-2.6867 0.41159h-2.9224q-1.6733 0-2.18 0.39331-0.51848 0.38415-0.51848 1.6647v0.64026h-1.6851v-0.57623q0-2.2775 0.87199-3.0367 0.86021-0.76832 3.4644-0.76832h2.8281q1.7558 0 2.4392-0.49391 0.67167-0.49391 0.67167-1.7927v-0.56708h1.6851v0.56708q0 1.2988 0.68345 1.7927 0.68346 0.49391 2.4628 0.49391h2.8163q2.6042 0 3.4762 0.76832 0.87199 0.75916 0.87199 3.0367v0.57623h-1.6968z"/>
      <path d="m749.28 503.37v0.64026q0 1.2805 0.5067 1.6647 0.5067 0.39331 2.1918 0.39331h2.9224q1.8383 0 2.6749 0.41159 0.83665 0.4116 1.1548 1.4269 0.2946-1.0153 1.1312-1.4269 0.83664-0.41159 2.6867-0.41159h2.9224q1.6733 0 2.18-0.39331 0.51848-0.38415 0.51848-1.6647v-0.64026h1.6851v0.57623q0 2.2775-0.87199 3.0367-0.86021 0.76832-3.4644 0.76832h-2.8281q-1.7558 0-2.4392 0.49391-0.67167 0.49391-0.67167 1.7927v0.56708h-1.6851v-0.56708q0-1.2988-0.68345-1.7927-0.68346-0.49391-2.4628-0.49391h-2.8163q-2.6042 0-3.4762-0.76832-0.87199-0.75916-0.87199-3.0367v-0.57623h1.6968z"/>
     </g>
    </g>
   </g>
  </g>
 </g>
 <g transform="matrix(.99998 0 0 .99998 -185.32 -463.7)">
  <g id="Green_Dot_Phylogeny" transform="translate(177.05,35.803)">
   <circle stroke-width="5.5966" stroke="#3b972e" cy="450.85" cx="122.95" r="20.148" fill="#6bab5b"/>
   <g clip-path="url(#b)" transform="matrix(1.3708,0,0,1.7101,-313.23,-1309)" stroke="#252525" stroke-width="1px" fill="none">
    <path d="m318 1015.4v5h-5v3h-5v3h-2v12"/>
    <path d="m308 1026.4h2v14"/>
    <path d="m318 1020.4h7v3h-4v11"/>
    <path d="m325 1023.4h3v5h-3v4h-2v6"/>
    <path d="m325 1032.4h2v6"/>
    <path d="m328 1028.4h3v11"/>
    <path d="m313 1023.4h4v5h-2v4"/>
    <path d="m317 1028.4h2v8"/>
    <path d="m317 1040.4v-8h-2-2v6"/>
   </g>
  </g>
 </g>
 <g transform="matrix(-.36730 -.93010 .93010 -.36730 -141.86 418.83)">
  <g id="Purple_Dot_Helix" transform="translate(-491.5,-422.39)">
   <circle stroke-width="5.593" stroke="#945bb0" cy="849.04" cx="748.65" r="20.135" fill="#aa7dc0"/>
   <g fill="none" clip-path="url(#a)">
    <g stroke-linejoin="round" stroke-width=".94095">
     <path stroke="#252525" d="m755.99 852.31v-8.7104"/>
     <path stroke-linecap="round" stroke="#c93d39" d="m752.21 849.74v-5.4389"/>
     <path stroke-linecap="square" stroke="#3b972e" d="m744.68 844.94v4.5062"/>
    </g>
    <g stroke="#252525">
     <g stroke-linejoin="round" stroke-width=".94095">
      <path stroke-linecap="round" d="m771.03 847.31v5.4389"/>
      <path stroke-linecap="square" d="m763.5 852.11v-4.5062"/>
      <path stroke-linecap="round" d="m759.73 853.25v-8.0865"/>
     </g>
     <g stroke-width="1.2105" stroke-linecap="square">
      <path d="m736.73 853.23c9.4095 0 9.4095-9.4095 18.819-9.4095"/>
      <path d="m741.43 843.82c9.4095 0 9.4095 9.4095 18.819 9.4095"/>
      <path d="m755.55 843.82c9.4095 0 9.4095 9.4095 18.819 9.4095"/>
      <path d="m760.25 853.23c9.4095 0 9.4095-9.4095 18.819-9.4095"/>
     </g>
     <g stroke-linejoin="round" stroke-width=".94095">
      <path d="m737.17 844.73v8.7104"/>
      <path stroke-linecap="round" d="m733.39 847.31v5.4389"/>
      <path stroke-linecap="square" d="m725.86 852.11v-4.5062"/>
      <path stroke-linecap="round" d="m752.21 849.74v-5.4389"/>
      <path stroke-linecap="square" d="m744.68 844.94v4.5062"/>
      <path stroke-linecap="round" d="m740.92 843.79v8.0865"/>
     </g>
     <g stroke-width="1.2105" stroke-linecap="square">
      <path d="m717.91 843.82c9.4095 0 9.4095 9.4095 18.819 9.4095"/>
      <path d="m722.61 853.23c9.4095 0 9.4095-9.4095 18.819-9.4095"/>
      <path d="m736.73 853.23c9.4095 0 9.4095-9.4095 18.819-9.4095"/>
      <path d="m741.43 843.82c9.4095 0 9.4095 9.4095 18.819 9.4095"/>
     </g>
    </g>
   </g>
  </g>
 </g>
</svg>
